<?xml version="1.0" standalone="no"?>
<!DOCTYPE svg PUBLIC "-//W3C//DTD SVG 20010904//EN"
 "http://www.w3.org/TR/2001/REC-SVG-20010904/DTD/svg10.dtd">
<svg version="1.0" xmlns="http://www.w3.org/2000/svg"
 width="3333.000000pt" height="3333.000000pt" viewBox="0 0 3333.000000 3333.000000"
 preserveAspectRatio="xMidYMid meet">

<g transform="translate(0.000000,3333.000000) scale(0.100000,-0.100000)"
fill="#000000" stroke="none">
<path d="M18635 27903 c-94 -23 -283 -94 -390 -147 -237 -118 -390 -231 -576
-424 -223 -232 -374 -484 -488 -815 -81 -236 -81 -235 -89 -724 -20 -1217 40
-2035 193 -2641 54 -212 100 -314 178 -395 81 -83 86 -106 98 -432 66 -1896
148 -2795 390 -4300 27 -170 59 -372 71 -447 12 -76 25 -138 30 -138 15 0 418
208 436 225 2 1 -20 193 -47 426 -146 1231 -225 2139 -271 3144 -18 373 -24
1338 -11 1720 39 1174 144 2291 357 3800 57 403 160 1093 169 1133 6 23 -4 26
-50 15z"/>
<path d="M15450 26931 c0 -1065 17 -1711 65 -2471 141 -2206 512 -4057 1396
-6955 67 -220 126 -417 131 -437 6 -21 13 -38 17 -38 3 1 83 29 176 63 148 54
170 65 167 82 -2 11 -59 214 -127 450 -407 1420 -615 2320 -850 3680 l-55 319
28 36 c118 147 203 432 257 855 52 413 73 809 140 2590 20 517 39 1018 44
1114 4 96 4 219 -1 274 -18 216 -79 432 -173 617 -216 422 -588 647 -1132 684
l-83 5 0 -868z"/>
<path d="M13738 27429 c-21 -5 -73 -26 -115 -48 -380 -191 -788 -770 -929
-1318 -60 -234 -62 -281 -30 -574 107 -980 213 -1623 352 -2144 294 -1095 747
-2044 1122 -2348 80 -65 148 -105 205 -122 26 -7 47 -21 55 -36 6 -13 60 -159
118 -324 296 -839 604 -1623 921 -2345 188 -427 635 -1405 648 -1419 6 -5 418
100 429 110 4 4 -49 153 -119 331 -554 1408 -803 2128 -1155 3343 -161 556
-150 496 -107 546 44 51 107 172 136 259 80 250 112 535 112 1005 0 619 -64
1285 -206 2160 -78 483 -131 893 -195 1520 -35 345 -47 392 -154 612 -237 486
-624 806 -970 802 -45 -1 -98 -5 -118 -10z m15 -746 c15 -120 283 -1885 333
-2193 75 -463 172 -1014 294 -1660 153 -810 241 -1292 237 -1296 -5 -5 -196
586 -262 811 -387 1318 -582 2562 -610 3885 -3 140 -7 313 -10 383 -5 125 6
166 18 70z"/>
<path d="M11861 26828 c-215 -131 -447 -328 -584 -498 -303 -376 -462 -850
-445 -1330 l6 -146 77 -244 c333 -1056 604 -1765 907 -2370 275 -551 537 -955
793 -1219 111 -115 195 -180 301 -231 l80 -40 64 -137 c521 -1126 927 -1930
1473 -2918 177 -321 615 -1095 627 -1108 6 -7 289 31 366 49 18 5 -18 82 -381
807 -841 1682 -1314 2734 -1745 3877 -572 1518 -1006 3192 -1360 5245 -57 330
-56 325 -67 325 -5 0 -55 -28 -112 -62z"/>
<path d="M10335 25004 c2 -11 4 -691 4 -1512 1 -981 4 -1491 11 -1487 6 3 7
-1 4 -10 -4 -8 4 -32 17 -53 13 -20 49 -85 79 -144 29 -59 58 -105 62 -102 4
3 5 -2 2 -10 -3 -9 -2 -16 3 -16 5 0 10 -6 10 -12 1 -24 308 -568 566 -1003
595 -1002 1256 -1993 2441 -3658 l361 -509 240 6 c132 4 252 10 268 14 l27 7
-156 225 c-713 1023 -1243 1824 -1686 2545 -395 643 -971 1616 -1029 1739 -40
84 -44 128 -20 205 24 72 28 193 10 301 -25 158 -171 720 -306 1175 -187 634
-573 1786 -649 1936 -47 93 -113 199 -125 199 -5 0 -8 4 -6 9 2 8 -60 101 -68
101 -3 0 5 -15 15 -33 16 -27 17 -34 5 -34 -8 0 -12 3 -10 7 6 10 -27 70 -36
64 -5 -3 -6 2 -3 10 3 8 -3 25 -14 37 -18 19 -20 19 -17 3z m47 -2971 c-6 -3
-9 -10 -6 -16 4 -7 1 -7 -7 1 -12 11 -12 14 1 22 8 5 17 6 20 3 3 -3 -1 -8 -8
-10z m8 -58 c11 -13 10 -14 -4 -9 -9 3 -16 10 -16 15 0 13 6 11 20 -6z m10
-35 c0 -5 -2 -10 -4 -10 -3 0 -8 5 -11 10 -3 6 -1 10 4 10 6 0 11 -4 11 -10z"/>
<path d="M21720 22557 c0 -2 33 -26 73 -52 401 -266 791 -654 1052 -1045 363
-546 571 -1162 626 -1853 15 -191 6 -675 -15 -857 -232 -1958 -1528 -3919
-3566 -5398 -2159 -1567 -4855 -2277 -7009 -1847 -583 117 -1099 305 -1551
566 -69 40 -131 72 -137 72 -7 0 -11 3 -8 5 3 3 -3 11 -13 18 -13 9 -19 9 -24
1 -5 -8 -18 0 -37 24 -17 20 -40 39 -51 42 -18 5 -20 0 -20 -45 0 -36 3 -47
13 -42 10 6 10 4 0 -7 -10 -10 -13 -168 -13 -719 0 -388 4 -710 8 -716 10 -15
57 -39 48 -25 -4 6 -3 11 1 11 5 0 14 -9 21 -21 8 -12 19 -18 28 -15 8 3 14 1
14 -4 0 -5 10 -14 21 -21 17 -9 20 -8 14 3 -4 7 1 4 13 -8 25 -26 273 -136
482 -214 1317 -494 2954 -529 4660 -100 1344 337 2693 965 3861 1796 1440
1025 2604 2335 3288 3702 791 1581 942 3175 424 4482 -343 865 -965 1572
-1823 2070 -120 69 -380 204 -380 197z m-10615 -10368 c11 -16 1 -19 -13 -3
-7 8 -8 14 -3 14 5 0 13 -5 16 -11z m10 -1431 c4 4 3 -2 -2 -12 -15 -28 -39
-28 -39 -1 0 19 3 22 17 15 9 -5 20 -6 24 -2z m29 -76 c3 -5 -1 -9 -9 -9 -8 0
-12 4 -9 9 3 4 7 8 9 8 2 0 6 -4 9 -8z"/>
<path d="M10285 22160 c-4 -6 -11 -7 -17 -4 -7 4 -8 2 -4 -5 6 -9 11 -9 22 0
14 11 18 19 10 19 -3 0 -8 -5 -11 -10z"/>
<path d="M18440 17188 c-232 -161 -587 -361 -862 -484 -736 -332 -1526 -525
-2391 -584 -191 -13 -766 -14 -927 -1 -68 6 -126 9 -127 7 -3 -2 115 -263 217
-481 15 -33 61 -132 102 -220 155 -332 297 -541 527 -778 838 -863 2172 -1157
3137 -692 214 103 380 221 529 376 237 248 378 518 452 868 25 116 27 144 27
356 0 244 -7 310 -60 517 -36 142 -78 254 -212 555 -65 147 -154 352 -197 456
-43 103 -83 187 -89 186 -6 0 -63 -37 -126 -81z m-3372 -1373 c2 -2 43 -86 92
-187 209 -438 421 -711 780 -1002 399 -324 886 -544 1393 -631 76 -13 142 -26
145 -30 4 -4 -94 -5 -218 -2 -463 11 -832 103 -1255 312 -314 155 -560 329
-795 565 -231 230 -367 423 -531 754 -60 121 -109 223 -109 226 0 7 492 2 498
-5z"/>
<path d="M25242 14348 c-464 -807 -1157 -1637 -1957 -2348 -1634 -1451 -3721
-2451 -5908 -2830 -546 -94 -1068 -145 -1629 -157 l-298 -6 0 -349 c0 -225 4
-348 10 -348 6 0 10 6 10 13 0 7 3 8 8 2 11 -16 70 -17 269 -6 1023 60 2001
247 2978 568 1587 521 3009 1335 4245 2429 203 179 718 697 892 896 579 664
1052 1375 1368 2058 114 245 116 257 12 78z"/>
<path d="M10995 12261 c-3 -5 -1 -12 5 -16 6 -4 7 -12 4 -18 -4 -7 1 -5 11 5
9 9 14 21 11 27 -9 13 -23 14 -31 2z m25 -11 c0 -5 -2 -10 -4 -10 -3 0 -8 5
-11 10 -3 6 -1 10 4 10 6 0 11 -4 11 -10z"/>
<path d="M10935 10830 c10 -11 20 -20 23 -20 3 0 -3 9 -13 20 -10 11 -20 20
-23 20 -3 0 3 -9 13 -20z"/>
</g>
</svg>
