<svg xmlns="http://www.w3.org/2000/svg" viewBox="0 8.84000015258789 291.3299865722656 37.029998779296875" data-asc="0.9052734375" width="291.3299865722656" height="37.029998779296875"><defs/><g><g fill="#000000"><g transform="translate(0, 0)"><path d="M0 45.26L0 9.47L13.43 9.47Q17.53 9.47 20.01 10.56Q22.49 11.65 23.89 13.90Q25.29 16.16 25.29 18.63Q25.29 20.92 24.05 22.95Q22.80 24.98 20.29 26.22Q23.54 27.17 25.28 29.47Q27.03 31.76 27.03 34.89Q27.03 37.40 25.96 39.56Q24.90 41.72 23.34 42.90Q21.78 44.07 19.42 44.67Q17.07 45.26 13.65 45.26L0 45.26M4.74 24.51L12.48 24.51Q15.63 24.51 16.99 24.10Q18.80 23.56 19.71 22.31Q20.63 21.07 20.63 19.19Q20.63 17.41 19.78 16.05Q18.92 14.70 17.33 14.20Q15.75 13.70 11.89 13.70L4.74 13.70L4.74 24.51M4.74 41.04L13.65 41.04Q15.94 41.04 16.87 40.87Q18.51 40.58 19.60 39.89Q20.70 39.21 21.41 37.90Q22.12 36.60 22.12 34.89Q22.12 32.89 21.09 31.41Q20.07 29.93 18.25 29.33Q16.43 28.74 13.01 28.74L4.74 28.74L4.74 41.04ZM29.61 45.26L43.36 9.47L48.46 9.47L63.11 45.26L57.71 45.26L53.54 34.42L38.57 34.42L34.64 45.26L29.61 45.26M39.94 30.57L52.08 30.57L48.34 20.65Q46.63 16.14 45.80 13.23Q45.12 16.67 43.87 20.07L39.94 30.57ZM66.89 45.26L66.89 9.47L79.22 9.47Q83.40 9.47 85.60 9.99Q88.67 10.69 90.84 12.55Q93.68 14.94 95.08 18.66Q96.48 22.39 96.48 27.17Q96.48 31.25 95.53 34.40Q94.58 37.55 93.09 39.61Q91.60 41.67 89.83 42.86Q88.06 44.04 85.56 44.65Q83.06 45.26 79.81 45.26L66.89 45.26M71.63 41.04L79.27 41.04Q82.81 41.04 84.83 40.38Q86.84 39.72 88.04 38.53Q89.72 36.84 90.66 34.00Q91.60 31.15 91.60 27.10Q91.60 21.48 89.76 18.47Q87.92 15.45 85.28 14.43Q83.37 13.70 79.15 13.70L71.63 13.70L71.63 41.04ZM102.86 45.26L102.86 9.47L109.99 9.47L118.46 34.81Q119.63 38.35 120.17 40.11Q120.78 38.16 122.07 34.38L130.64 9.47L137.01 9.47L137.01 45.26L132.45 45.26L132.45 15.31L122.05 45.26L117.77 45.26L107.42 14.79L107.42 45.26L102.86 45.26ZM145.46 45.26L145.46 9.47L150.20 9.47L150.20 45.26L145.46 45.26ZM158.50 45.26L158.50 9.47L163.35 9.47L182.15 37.57L182.15 9.47L186.69 9.47L186.69 45.26L181.84 45.26L163.04 17.14L163.04 45.26L158.50 45.26ZM203.76 45.26L203.76 13.70L191.97 13.70L191.97 9.47L220.34 9.47L220.34 13.70L208.50 13.70L208.50 45.26L203.76 45.26ZM222.85 27.83Q222.85 18.92 227.64 13.88Q232.42 8.84 239.99 8.84Q244.95 8.84 248.93 11.21Q252.91 13.57 254.99 17.81Q257.08 22.05 257.08 27.42Q257.08 32.86 254.88 37.16Q252.69 41.46 248.66 43.66Q244.63 45.87 239.97 45.87Q234.91 45.87 230.93 43.43Q226.95 40.99 224.90 36.77Q222.85 32.54 222.85 27.83M227.73 27.91Q227.73 34.38 231.21 38.10Q234.69 41.82 239.94 41.82Q245.29 41.82 248.74 38.06Q252.20 34.30 252.20 27.39Q252.20 23.02 250.72 19.76Q249.24 16.50 246.40 14.71Q243.55 12.92 240.01 12.92Q234.99 12.92 231.36 16.37Q227.73 19.82 227.73 27.91ZM263.13 45.26L263.13 9.47L267.99 9.47L286.79 37.57L286.79 9.47L291.33 9.47L291.33 45.26L286.47 45.26L267.68 17.14L267.68 45.26L263.13 45.26Z"/></g><g transform="translate(0, 60.595703125)"><path d=""/></g></g></g></svg>